<?xml version="1.0" standalone="no"?>
<!DOCTYPE svg PUBLIC "-//W3C//DTD SVG 20010904//EN"
 "http://www.w3.org/TR/2001/REC-SVG-20010904/DTD/svg10.dtd">
<svg version="1.0" xmlns="http://www.w3.org/2000/svg"
 width="1500.000000pt" height="1500.000000pt" viewBox="0 0 1500.000000 1500.000000"
 preserveAspectRatio="xMidYMid meet">

<g transform="translate(0.000000,1500.000000) scale(0.100000,-0.100000)"
fill="#000000" stroke="none">
<path d="M7050 11074 c-698 -62 -1253 -288 -1797 -732 -649 -531 -1016 -1185
-1128 -2012 -22 -160 -31 -592 -16 -772 67 -799 345 -1419 867 -1929 558 -544
1262 -870 2057 -954 598 -62 1185 3 1742 195 405 140 746 321 1037 552 132
104 402 374 506 505 90 114 216 292 211 298 -2 2 -240 107 -529 235 -504 222
-526 230 -540 212 -8 -11 -44 -57 -80 -103 -83 -107 -272 -298 -375 -379 -357
-283 -762 -444 -1224 -490 -134 -13 -435 -13 -559 1 -466 50 -840 221 -1156
528 -181 177 -316 362 -420 576 -93 191 -173 438 -206 635 -5 36 -13 80 -16
98 l-5 32 2557 0 2557 0 -7 152 c-49 1101 -406 1937 -1071 2513 -532 460
-1127 735 -1775 821 -110 14 -535 26 -630 18z m454 -974 c474 -45 840 -220
1181 -564 297 -299 495 -633 585 -986 11 -43 20 -85 20 -94 0 -15 -174 -16
-1911 -16 l-1912 0 7 52 c11 83 72 308 109 404 164 425 466 780 842 992 309
174 690 249 1079 212z"/>
</g>
</svg>
